<?xml version="1.0" encoding="utf-8"?>
<!-- Generator: Adobe Illustrator 24.1.2, SVG Export Plug-In . SVG Version: 6.00 Build 0)  -->
<svg version="1.1" id="Layer_1" xmlns="http://www.w3.org/2000/svg" xmlns:xlink="http://www.w3.org/1999/xlink" x="0px" y="0px"
	 viewBox="0 0 1920 1080" style="enable-background:new 0 0 1920 1080;" xml:space="preserve">
<style type="text/css">
	.st0{stroke:#FFFFFF;stroke-miterlimit:10;}
	.st1{fill:#BC3B2A;}
</style>
<rect class="st0" width="1920" height="1080"/>
<g>
	<path class="st1" d="M130,513.55c32.95-2.16,65.9-3.72,98.84-5.09c32.94-1.4,65.87-2.47,98.81-3.45l49.4-1.28
		c16.47-0.43,32.93-0.67,49.39-1.02c32.93-0.68,65.85-1.09,98.77-1.41c131.68-1.29,263.32-0.43,394.94,1.97
		c131.61,2.44,263.19,6.49,394.74,12.66c32.89,1.54,65.77,3.19,98.65,5.09c16.44,0.96,32.88,1.83,49.32,2.86l49.31,3.12l49.31,3.42
		c16.43,1.23,32.87,2.39,49.3,3.74c32.87,2.6,65.73,5.4,98.58,8.8c-32.95,2.18-65.9,3.75-98.84,5.13
		c-16.47,0.74-32.94,1.28-49.41,1.9l-49.4,1.58l-49.4,1.28c-16.46,0.41-32.93,0.68-49.39,1.02c-32.93,0.67-65.85,1.09-98.77,1.41
		c-131.68,1.27-263.32,0.42-394.93-2.04c-131.61-2.5-263.19-6.55-394.74-12.73c-32.89-1.55-65.77-3.19-98.65-5.09
		c-16.44-0.96-32.88-1.82-49.32-2.86l-49.31-3.12c-32.87-2.21-65.74-4.51-98.61-7.13C195.71,519.72,162.85,516.94,130,513.55z"/>
</g>
<g>
	<path class="st1" d="M600,165.04c4.44,15.13,7.91,30.26,11.12,45.39c3.16,15.13,5.95,30.26,8.45,45.39
		c2.49,15.13,4.69,30.26,6.65,45.39c1.98,15.13,3.67,30.26,5.16,45.39c3.01,30.26,5.11,60.52,6.51,90.78
		c1.4,30.26,2.08,60.52,2.1,90.78c0.03,30.26-0.64,60.52-2.02,90.78c-1.4,30.26-3.46,60.52-6.48,90.78
		c-0.71,7.57-1.57,15.13-2.39,22.7c-0.9,7.57-1.77,15.13-2.77,22.7c-1.96,15.13-4.16,30.26-6.66,45.39
		c-2.5,15.13-5.31,30.26-8.49,45.39c-3.22,15.13-6.71,30.26-11.18,45.39c-4.47-15.13-7.96-30.26-11.18-45.39
		c-3.18-15.13-5.98-30.26-8.49-45.39c-2.5-15.13-4.7-30.26-6.66-45.39c-1.01-7.57-1.87-15.13-2.77-22.7
		c-0.82-7.57-1.68-15.13-2.39-22.7c-3.02-30.26-5.08-60.52-6.48-90.78c-1.38-30.26-2.05-60.52-2.02-90.78
		c0.02-30.26,0.7-60.52,2.1-90.78c1.4-30.26,3.5-60.52,6.51-90.78c1.49-15.13,3.18-30.26,5.16-45.39
		c1.96-15.13,4.15-30.26,6.65-45.39c2.49-15.13,5.29-30.26,8.45-45.39C592.09,195.31,595.56,180.18,600,165.04z"/>
</g>
<g>
	<path class="st1" d="M936.21,292.74c3.58,9.81,6.37,19.62,8.96,29.43c2.54,9.81,4.79,19.62,6.8,29.43
		c3.99,19.62,7.12,39.24,9.51,58.86c2.42,19.62,4.12,39.24,5.24,58.86c1.13,19.62,1.68,39.24,1.69,58.86
		c0.03,19.62-0.51,39.24-1.63,58.86c-1.12,19.62-2.79,39.24-5.22,58.86c-1.19,9.81-2.57,19.62-4.16,29.43
		c-1.58,9.81-3.35,19.62-5.36,29.43c-2.01,9.81-4.27,19.62-6.83,29.43c-2.6,9.81-5.4,19.62-9,29.43c-3.6-9.81-6.41-19.62-9-29.43
		c-2.56-9.81-4.82-19.62-6.83-29.43c-2.01-9.81-3.78-19.62-5.36-29.43c-1.59-9.81-2.97-19.62-4.16-29.43
		c-2.43-19.62-4.09-39.24-5.22-58.86c-1.11-19.62-1.65-39.24-1.63-58.86c0.02-19.62,0.56-39.24,1.69-58.86
		c1.13-19.62,2.82-39.24,5.24-58.86c2.38-19.62,5.52-39.24,9.51-58.86c2.01-9.81,4.26-19.62,6.8-29.43
		C929.84,312.36,932.63,302.55,936.21,292.74z"/>
</g>
<g>
	<path class="st1" d="M1253.24,401.81c2.63,5.27,4.65,10.53,6.56,15.8c1.86,5.27,3.51,10.53,4.98,15.8
		c2.92,10.53,5.22,21.06,6.97,31.59c3.53,21.06,5.03,42.12,5.08,63.18c0.01,21.06-1.5,42.12-5.01,63.18
		c-1.74,10.53-4.04,21.06-6.98,31.59c-1.48,5.27-3.13,10.53-5.01,15.8c-1.92,5.27-3.95,10.53-6.6,15.8
		c-2.65-5.27-4.68-10.53-6.6-15.8c-1.87-5.27-3.53-10.53-5.01-15.8c-2.93-10.53-5.23-21.06-6.98-31.59
		c-3.51-21.06-5.02-42.12-5.01-63.18c0.05-21.06,1.55-42.12,5.08-63.18c1.75-10.53,4.04-21.06,6.97-31.59
		c1.47-5.27,3.12-10.53,4.98-15.8C1248.59,412.34,1250.61,407.08,1253.24,401.81z"/>
</g>
</svg>
